<svg width="120" height="120" viewBox="0 0 120 120" fill="none" xmlns="http://www.w3.org/2000/svg">
  <!-- Dark teal background -->
  <rect width="120" height="120" fill="#4A5D5E"/>
  
  <!-- Traffic Cone Base -->
  <rect x="25" y="85" width="70" height="15" fill="#FF6B35" stroke="#000" stroke-width="2"/>
  
  <!-- Traffic Cone Body -->
  <path d="M30 85 L30 35 L90 35 L90 85 Z" fill="#FF6B35" stroke="#000" stroke-width="2"/>
  
  <!-- Reflective bands on cone -->
  <rect x="32" y="45" width="56" height="6" fill="#F3F4F6" stroke="#000" stroke-width="1"/>
  <rect x="32" y="60" width="56" height="6" fill="#F3F4F6" stroke="#000" stroke-width="1"/>
  
  <!-- Cone opening -->
  <circle cx="60" cy="35" r="8" fill="#FF6B35" stroke="#000" stroke-width="2"/>
  
  <!-- Hard Hat Dome -->
  <ellipse cx="65" cy="28" rx="20" ry="14" fill="#FFE066" stroke="#000" stroke-width="2"/>
  <ellipse cx="65" cy="25" rx="18" ry="12" fill="#FFE066"/>
  
  <!-- Hard Hat Brim -->
  <path d="M45 25 Q65 32 85 25" fill="#FFE066" stroke="#000" stroke-width="2"/>
  
  <!-- Hard Hat Highlights -->
  <path d="M50 15 Q65 20 80 15" fill="#FFF" opacity="0.8"/>
  <path d="M48 23 Q65 28 82 23" fill="#FFF" opacity="0.6"/>
  
  <!-- Cone Highlights -->
  <path d="M30 35 L35 35 L35 85 L30 85 Z" fill="#FFF" opacity="0.3"/>
  <path d="M30 85 L35 85 L35 100 L30 100 Z" fill="#FFF" opacity="0.3"/>
</svg>
